<svg id="Layer_1" data-name="Layer 1" xmlns="http://www.w3.org/2000/svg" viewBox="0 0 424.35 84.41"><defs><style>.cls-1{fill:#fdb100;}.cls-2{fill:#0e9877;}</style></defs><title>logo</title><path class="cls-1" d="M59.83,67.21H45.69L41.42,55.66h-22L15.17,67.21H1L24.34,9.45H36.52ZM30.5,27.3h-.14l-6.44,16.8h13Z" transform="translate(-1.02 -1)"/><path class="cls-1" d="M86.22,68.26a16.34,16.34,0,0,1-11.76-4.48V85.41H62.06V31.29H74.32v4.06h.14a15.91,15.91,0,0,1,11.76-5.11c10.5,0,17.85,8.47,17.85,19S96.72,68.26,86.22,68.26ZM82.51,40.82a8.07,8.07,0,0,0-8.33,8.4,8.37,8.37,0,1,0,16.73,0A8,8,0,0,0,82.51,40.82Z" transform="translate(-1.02 -1)"/><path class="cls-1" d="M109.87,31.29h12.39v3.78h.14c2.8-2.8,6.37-4.83,10.29-4.83,6.58,0,15.75,3.29,15.75,13.3V67.21H136.06V46.91c0-3.57-2.45-7-6.44-7-3.71,0-7.35,3.43-7.35,7v20.3H109.87Z" transform="translate(-1.02 -1)"/><path class="cls-1" d="M171.41,30.24a16.34,16.34,0,0,1,11.76,4.48V31.29h12.39V67.21H183.31V63.15h-.14a15.91,15.91,0,0,1-11.76,5.11c-10.5,0-17.85-8.47-17.85-19S160.91,30.24,171.41,30.24Zm3.71,27.44a8.07,8.07,0,0,0,8.33-8.4,8.37,8.37,0,1,0-16.73,0A8,8,0,0,0,175.12,57.69Z" transform="translate(-1.02 -1)"/><path d="M319,14.55,309.8,2a2.37,2.37,0,0,0-3.3-.51L282.07,19.34a2.37,2.37,0,0,0-.51,3.3l9.22,12.59a2.37,2.37,0,0,0,3.3.51l24.42-17.89A2.37,2.37,0,0,0,319,14.55Zm-7.46-7.3,2.95,4a.29.29,0,0,1-.46.34l-2.95-4a.29.29,0,0,1,.46-.34Zm-24.43,21a1.18,1.18,0,1,1,1.65.25A1.18,1.18,0,0,1,287.12,28.24Zm7.61,5L284.66,19.48,306.35,3.6l10.07,13.75Z" transform="translate(-1.02 -1)"/><path class="cls-2" d="M224.75,9.45c11.27,0,19.74,5.81,19.74,17.78S236,45.79,224.75,45.79h-7.91V67.21H203.68V9.45Zm-4.2,25.83c5.18,0,10.08-1.75,10.08-7.63s-4.9-7.7-10.08-7.7h-3.71V35.28Z" transform="translate(-1.02 -1)"/><path class="cls-2" d="M250.3,7h12.39V35.07h.14c2.8-2.8,6.37-4.83,10.29-4.83,6.58,0,15.75,3.29,15.75,13.3V67.21H276.48V46.91c0-3.57-2.45-7-6.44-7-3.71,0-7.35,3.43-7.35,7v20.3H250.3Z" transform="translate(-1.02 -1)"/><path class="cls-2" d="M315.61,30.24c11.9,0,21.42,7.84,21.42,19s-9,19-21.42,19c-13,0-21.63-7.91-21.63-19S303.5,30.24,315.61,30.24Zm-.07,27.44a8.07,8.07,0,0,0,8.33-8.4,8.37,8.37,0,1,0-16.73,0A8,8,0,0,0,315.54,57.69Z" transform="translate(-1.02 -1)"/><path class="cls-2" d="M342.7,31.29h12.39v3.78h.14c2.8-2.8,6.37-4.83,10.29-4.83,6.58,0,15.75,3.29,15.75,13.3V67.21H368.88V46.91c0-3.57-2.45-7-6.44-7-3.71,0-7.35,3.43-7.35,7v20.3H342.7Z" transform="translate(-1.02 -1)"/><path class="cls-2" d="M399.26,51c0,5.53,4.62,7.42,7.77,7.42,4,0,5.74-.77,8.75-4l9,4.48c-4.06,6.79-10.64,9.38-18.62,9.38-10.85,0-19.74-8.54-19.74-19s8.89-19,19.74-19,19.25,6.44,19.25,19A12.87,12.87,0,0,1,425.3,51Zm14-6.86a6.38,6.38,0,0,0-6.79-5.81c-4.27,0-6.65,2.52-6.86,5.81Z" transform="translate(-1.02 -1)"/></svg>